<?xml version="1.0" standalone="no"?>
<!DOCTYPE svg PUBLIC "-//W3C//DTD SVG 20010904//EN"
 "http://www.w3.org/TR/2001/REC-SVG-20010904/DTD/svg10.dtd">
<svg version="1.0" xmlns="http://www.w3.org/2000/svg"
 width="1024.000000pt" height="1024.000000pt" viewBox="0 0 1024.000000 1024.000000"
 preserveAspectRatio="xMidYMid meet">
<metadata>
Created by potrace 1.11, written by Peter Selinger 2001-2013
</metadata>
<g transform="translate(0.000000,1024.000000) scale(0.100000,-0.100000)"
fill="#000000" stroke="none">
<path d="M4865 9753 c-230 -13 -474 -46 -670 -88 -66 -14 -132 -28 -147 -32
-42 -9 -34 -20 25 -33 87 -21 425 -135 563 -190 243 -99 587 -274 789 -402 47
-29 62 -35 70 -25 76 96 176 233 233 319 81 120 212 345 212 363 0 21 -317 67
-575 85 -138 9 -379 11 -500 3z"/>
<path d="M6375 9441 c-101 -203 -242 -426 -403 -639 -47 -62 -81 -117 -76
-121 5 -4 50 -41 99 -81 348 -285 678 -628 974 -1012 45 -60 84 -108 86 -108
2 0 46 51 98 113 264 315 483 643 682 1020 58 110 65 130 52 140 -417 335
-874 593 -1340 755 l-117 42 -55 -109z"/>
<path d="M3533 9208 c19 -50 600 -1315 607 -1321 4 -5 61 22 126 59 293 166
522 334 837 616 l49 43 -89 51 c-419 245 -876 425 -1340 528 -175 39 -198 42
-190 24z"/>
<path d="M3020 8863 c-203 -441 -369 -957 -446 -1386 l-7 -39 69 6 c282 26
456 54 649 102 135 34 405 123 405 134 0 10 -590 1302 -599 1313 -4 4 -36 -55
-71 -130z"/>
<path d="M2389 8828 c-309 -240 -634 -573 -864 -883 -98 -132 -185 -261 -185
-273 0 -26 376 -143 583 -182 154 -29 154 -29 162 23 17 107 92 428 140 601
63 223 133 432 217 639 33 82 58 150 56 153 -2 2 -51 -33 -109 -78z"/>
<path d="M8235 8323 c-248 -454 -499 -811 -862 -1222 -18 -20 -32 -40 -33 -45
0 -4 29 -56 64 -115 256 -430 475 -906 647 -1412 l63 -185 84 94 c374 421 706
939 936 1459 l58 131 -74 155 c-137 282 -284 523 -478 782 -92 123 -287 352
-343 403 l-25 24 -37 -69z"/>
<path d="M5524 8289 c-34 -36 -255 -235 -334 -300 -214 -177 -558 -407 -782
-524 -32 -17 -58 -34 -58 -38 0 -8 649 -1436 657 -1447 2 -2 82 34 176 82 431
215 843 480 1202 775 147 120 315 272 315 284 0 14 -158 224 -270 359 -209
251 -455 499 -685 692 -110 92 -181 148 -187 148 -2 0 -17 -14 -34 -31z"/>
<path d="M1049 7153 c-216 -468 -355 -953 -412 -1430 l-13 -112 112 -31 c354
-98 798 -172 1177 -196 87 -5 107 -4 107 7 0 8 -7 79 -15 159 -37 372 -43 855
-15 1221 6 74 12 152 13 174 l2 39 -55 8 c-255 37 -588 131 -823 232 l-38 17
-40 -88z"/>
<path d="M3878 7225 c-3 -3 -73 -29 -154 -56 -366 -123 -725 -193 -1074 -207
l-155 -7 -6 -65 c-43 -428 -36 -979 17 -1451 l7 -59 61 0 c157 0 593 50 844
96 367 67 802 186 1119 305 20 7 6 41 -307 726 -181 394 -332 719 -337 720 -5
2 -12 1 -15 -2z"/>
<path d="M6867 6604 c-440 -385 -924 -708 -1455 -973 -166 -82 -193 -99 -189
-116 4 -18 764 -1685 773 -1694 12 -13 408 192 654 339 195 117 408 259 586
393 143 106 420 334 461 379 l23 24 -55 180 c-122 405 -278 794 -466 1164 -76
149 -201 376 -217 392 -4 4 -56 -35 -115 -88z"/>
<path d="M9355 6243 c-274 -498 -566 -896 -976 -1330 l-115 -123 33 -152 c92
-430 149 -891 169 -1377 l7 -164 76 83 c281 308 530 647 716 975 73 129 209
403 272 550 l38 90 0 350 c-1 374 -10 497 -61 795 -27 159 -84 410 -93 410 -4
0 -33 -48 -66 -107z"/>
<path d="M4515 5259 c-572 -195 -1226 -327 -1763 -355 -72 -4 -136 -10 -143
-15 -16 -9 10 -138 82 -406 117 -436 321 -963 502 -1296 l48 -87 67 6 c735 66
1418 215 2063 449 82 30 156 58 163 62 10 6 -81 215 -378 865 -215 472 -395
857 -401 857 -5 -1 -113 -36 -240 -80z"/>
<path d="M600 5068 c0 -98 21 -374 41 -528 37 -300 103 -591 198 -878 56 -170
140 -384 154 -393 14 -10 190 -46 382 -79 360 -62 711 -97 1087 -107 l237 -6
-73 159 c-213 462 -378 954 -488 1458 l-42 193 -193 12 c-228 14 -468 41 -683
77 -160 26 -470 93 -556 119 -27 8 -52 15 -56 15 -5 0 -8 -19 -8 -42z"/>
<path d="M7720 4309 c-390 -313 -861 -613 -1326 -846 l-192 -95 30 -67 c163
-366 625 -1365 633 -1368 29 -9 520 278 751 440 238 167 352 259 358 291 10
48 7 610 -4 786 -18 279 -71 701 -113 902 l-12 57 -125 -100z"/>
<path d="M5665 3144 c-93 -39 -545 -189 -685 -228 -441 -123 -891 -213 -1316
-262 -125 -15 -142 -19 -134 -33 23 -42 227 -314 325 -433 218 -264 593 -621
862 -821 l92 -68 113 16 c427 62 894 182 1294 331 99 36 184 69 190 73 15 9
-646 1451 -666 1450 -8 0 -42 -12 -75 -25z"/>
<path d="M9020 2972 c-110 -127 -342 -363 -467 -474 l-108 -98 -18 -167 c-10
-93 -20 -179 -23 -193 -5 -23 -3 -22 26 10 145 163 360 458 482 660 69 115
191 340 186 345 -2 2 -37 -35 -78 -83z"/>
<path d="M1280 2706 c0 -14 171 -268 254 -379 189 -252 410 -491 635 -688
l123 -109 112 -34 c469 -146 951 -224 1490 -242 169 -6 189 -5 176 9 -8 8 -61
57 -117 110 -323 302 -652 698 -893 1074 l-95 148 -330 1 c-328 1 -514 11
-800 40 -141 14 -450 55 -523 70 -17 4 -32 3 -32 0z"/>
<path d="M7799 1906 c-195 -131 -483 -299 -651 -382 -43 -21 -78 -43 -78 -49
0 -5 40 -96 88 -200 l87 -191 75 44 c109 64 261 164 376 248 l101 73 31 138
c35 157 75 373 70 379 -2 2 -47 -25 -99 -60z"/>
<path d="M6571 1259 c-199 -87 -579 -209 -894 -289 l-228 -57 153 -68 c188
-84 457 -184 512 -191 52 -7 291 60 504 142 81 31 155 58 165 61 9 3 17 10 17
16 0 12 -169 388 -179 398 -3 4 -26 -2 -50 -12z"/>
<path d="M4590 786 c-47 -5 -285 -10 -528 -10 l-444 -1 117 -38 c413 -134 913
-216 1315 -217 l95 0 -155 88 c-85 49 -186 109 -225 133 -38 25 -74 47 -80 50
-5 3 -48 1 -95 -5z"/>
</g>
</svg>
